<svg id="Capa_1" enable-background="new 0 0 512 512" height="512" viewBox="0 0 512 512" width="512" xmlns="http://www.w3.org/2000/svg"><g><circle cx="256" cy="256" fill="#fa5744" r="256"/><path d="m346.708 77.86-270.031 270.03 1.111 6.293 156.93 156.93c7.019.577 14.114.887 21.282.887 141.385 0 256-114.615 256-256 0-7.168-.31-14.263-.887-21.281l-156.93-156.93z" fill="#f42520"/><path d="m216.727 210.552 130.385-139.834-7.071-7.071-276.394 276.394 7.071 7.071z" fill="#555a65"/><path d="m17.01 207.451h390.881v10h-390.881z" fill="#333940" transform="matrix(.707 -.707 .707 .707 -88 212.451)"/><path d="m310.897 304.722 130.385-139.834-7.071-7.071-276.394 276.394 7.071 7.071z" fill="#555a65"/><path d="m111.18 301.621h390.881v10h-390.881z" fill="#333940" transform="matrix(.707 -.707 .707 .707 -127.006 306.621)"/><path d="m151.899 209.363-35.356 35.355 28.285 28.284 26.163-9.192 9.192-26.163z" fill="#d59b8d"/><path d="m151.648 249.467h50v40h-50z" fill="#c1877a" transform="matrix(.707 -.707 .707 .707 -138.803 203.834)"/><path d="m201.396 159.865-35.355 35.356 28.284 28.284 26.163-9.193 9.193-26.163z" fill="#d59b8d"/><path d="m201.145 199.969h50v40h-50z" fill="#c1877a" transform="matrix(.707 -.707 .707 .707 -89.305 224.336)"/><path d="m250.894 110.368-35.356 35.355 28.285 28.284 26.163-9.192 9.192-26.163z" fill="#d59b8d"/><path d="m250.643 150.472h50v40h-50z" fill="#c1877a" transform="matrix(.707 -.707 .707 .707 -39.808 244.839)"/><path d="m300.391 60.87-35.355 35.356 28.284 28.284 26.163-9.193 9.193-26.163z" fill="#d59b8d"/><path d="m300.14 100.974h50v40h-50z" fill="#c1877a" transform="matrix(.707 -.707 .707 .707 9.69 265.341)"/><path d="m246.069 303.533-35.356 35.355 28.285 28.284 26.163-9.192 9.192-26.163z" fill="#d59b8d"/><path d="m245.818 343.637h50v40h-50z" fill="#c1877a" transform="matrix(.707 -.707 .707 .707 -177.809 298.004)"/><path d="m295.566 254.035-35.355 35.356 28.284 28.284 26.163-9.193 9.193-26.163z" fill="#d59b8d"/><path d="m295.315 294.139h50v40h-50z" fill="#c1877a" transform="matrix(.707 -.707 .707 .707 -128.312 318.506)"/><path d="m345.064 204.538-35.356 35.355 28.285 28.284 26.163-9.192 9.192-26.163z" fill="#d59b8d"/><path d="m344.812 244.642h50v40h-50z" fill="#c1877a" transform="matrix(.707 -.707 .707 .707 -78.814 339.009)"/><path d="m394.561 155.04-35.355 35.356 28.284 28.284 26.163-9.193 9.193-26.163z" fill="#d59b8d"/><path d="m394.31 195.144h50v40h-50z" fill="#c1877a" transform="matrix(.707 -.707 .707 .707 -29.317 359.511)"/></g></svg>